<svg id="Capa_1" enable-background="new 0 0 512 512" height="512" viewBox="0 0 512 512" width="512" xmlns="http://www.w3.org/2000/svg"><g><path d="m106.981 157.26-61.578 98.524h140.398z" fill="#9ebc2c"/><path d="m326.199 255.784h140.398l-61.578-98.524z" fill="#5a781e"/><path d="m296.872 255.784h29.327l-70.199-98.524v98.524z" fill="#5a781e"/><path d="m215.128 255.784h40.872v-98.524l-70.199 98.524z" fill="#9ebc2c"/><path d="m185.801 255.784h-140.398l210.597 230.723z" fill="#5a781e"/><path d="m326.199 255.784-70.199 230.723 210.597-230.723z" fill="#355e16"/><path d="m215.128 255.784h-29.327l70.199 230.723v-204.473-26.25z" fill="#d0e95a"/><path d="m296.872 255.784h-40.872v26.25 204.473l70.199-230.723z" fill="#9ebc2c"/><path d="m241 25.493h30v81.54h-30z" fill="#d0b9a4"/><path d="m409.3 83.737h82.429v29.999h-82.429z" fill="#d0b9a4" transform="matrix(.625 -.781 .781 .625 91.983 388.853)"/><path d="m332.311 76.919h30v30.114h-30z" fill="#ebd5ae"/><path d="m481.886 174.132h30.114v30h-30.114z" fill="#ebd5ae"/><path d="m46.486 57.523h29.999v82.429h-29.999z" fill="#d0b9a4" transform="matrix(.781 -.625 .625 .781 -48.207 60.046)"/><path d="m149.689 76.919h30v30.114h-30z" fill="#ebd5ae"/><path d="m0 174.132h30.114v30h-30.114z" fill="#ebd5ae"/><path d="m106.981 157.26 78.82 98.524 70.199-98.524z" fill="#d0e95a"/><path d="m256 157.26 70.199 98.524 78.82-98.524z" fill="#9ebc2c"/></g></svg>